<svg xmlns="http://www.w3.org/2000/svg" width="1024" height="1024" viewBox="0 0 1024 1024">
  <defs>
    <style>
      .a {
        fill: #363636;
      }
    </style>
  </defs>
  <title>phone-call</title>
  <g>
    <path class="a" d="M64.89,195.85a154.43,154.43,0,0,0-11.77,14.71c-33.18,29.37-59.42,94-44,173.62C75.3,728.95,365.73,991.62,715.37,1023c7.53.68,15,1,22.44,1,40.17,0,78.07-9.9,108.25-28.44a159,159,0,0,0,38.59-31.14l30-33.2c58.56-64.76,53.51-165.09-11.22-223.65l-50.67-45.81A158.28,158.28,0,0,0,629.14,673l-30,33.18a157.32,157.32,0,0,0-28,43.48,560.72,560.72,0,0,1-278.6-255,158.48,158.48,0,0,0,57.86-40.54l30-33.16a158.43,158.43,0,0,0-11.21-223.7l-50.65-45.77A158.38,158.38,0,0,0,94.89,162.64Zm60.2-5.91a117.68,117.68,0,0,1,166.18-8.29l50.65,45.78a117.72,117.72,0,0,1,8.33,166.2l-30,33.15h0A117.48,117.48,0,0,1,267,460.53l-9.12,2.74a20.35,20.35,0,0,0-12.37,28.55l4.24,8.55a601.49,601.49,0,0,0,318,291.84l7.9,3.11a20.33,20.33,0,0,0,26.74-12.49l2.67-8a117,117,0,0,1,24.27-41.39l30-33.18a117.58,117.58,0,0,1,166.16-8.33l50.66,45.81a117.79,117.79,0,0,1,8.33,166.16l-30,33.21a119.61,119.61,0,0,1-29.23,23.47C796.43,978.27,758.74,986,719,982.44,387.36,952.69,111.87,703.53,49.09,376.49c-13.28-68.56,11.68-118.93,31.7-136a20.27,20.27,0,0,0,1.85-1.8L84,237.11A21.23,21.23,0,0,0,85.68,235a114.87,114.87,0,0,1,9.41-11.87Z"/>
    <path class="a" d="M1019.42,483.47C1019.42,216.88,802.55,0,536,0a42.35,42.35,0,1,0,0,84.69c219.87,0,398.75,178.89,398.75,398.77a42.34,42.34,0,0,0,84.67,0Zm-42.33,22a22,22,0,0,1-22-22c0-231.11-188-419.12-419.11-419.12a22,22,0,1,1,0-44c255.34,0,463.08,207.75,463.08,463.11A22,22,0,0,1,977.09,505.44Z"/>
    <path class="a" d="M530.78,157.43a42.34,42.34,0,0,0,0,84.68c135.94,0,246.54,110.6,246.54,246.54a42.35,42.35,0,0,0,84.69,0C862,306,713.42,157.43,530.78,157.43ZM819.67,510.64a22,22,0,0,1-22-22c0-147.16-119.73-266.9-266.89-266.9a22,22,0,0,1,0-44c171.42,0,310.87,139.45,310.87,310.86A22,22,0,0,1,819.67,510.64Z"/>
  </g>
</svg>
