<svg xmlns="http://www.w3.org/2000/svg" xmlns:xlink="http://www.w3.org/1999/xlink" width="1024" height="1024" viewBox="0 0 1024 1024">
  <defs>
    <style>
      .a, .b {
        fill: none;
      }

      .b {
        stroke: #c1272d;
        stroke-linecap: round;
        stroke-miterlimit: 10;
        stroke-width: 63.8px;
      }

      .c {
        clip-path: url(#a);
      }
    </style>
    <clipPath id="a">
      <rect class="a" x="455.33" y="-68.19" width="111.61" height="164.77"/>
    </clipPath>
  </defs>
  <title>pin</title>
  <g>
    <path class="b" d="M635.4,1002.77l-21.35-21.35M512,679.88c-110.17,0-199.49,89.31-199.49,199.49S401.83,1078.85,512,1078.85s199.49-89.31,199.49-199.49S622.17,679.88,512,679.88ZM512,855a24.34,24.34,0,1,0,24.34,24.34A24.34,24.34,0,0,0,512,855Zm0,24.34,66.37-67.93M411.44,982.54l-21.35,21.35M635.18,757.52l-21.35,21.35M512,1022.45v32m0-349.78v32M387.92,756l21.35,21.35M336.56,880.7h32m286.83,0h32"/>
    <g>
      <g class="c">
        <path d="M511.15-68.19a55.88,55.88,0,0,0-55.82,55.82c0,12.37,7.28,31.18,22.91,59.19C488.92,65.93,499.54,82.08,500,82.76l7.68,11.63a4.18,4.18,0,0,0,7,0l7.68-11.63c.44-.67,11-16.68,21.74-35.94C559.69,18.8,567,0,567-12.38a55.88,55.88,0,0,0-55.82-55.82Zm25.6,110.93c-10.6,19-21,34.75-21.41,35.41l-4.18,6.34L507,78.15c-.44-.67-10.89-16.56-21.42-35.41C471,16.75,463.7-1.79,463.7-12.38a47.51,47.51,0,0,1,47.45-47.45A47.51,47.51,0,0,1,558.6-12.38c0,10.59-7.35,29.13-21.85,55.12Zm0,0"/>
      </g>
      <path d="M511.15-43.67A31,31,0,0,0,480.2-12.73a31,31,0,0,0,30.95,30.95A31,31,0,0,0,542.1-12.73a31,31,0,0,0-30.95-30.95Zm0,53.53a22.61,22.61,0,0,1-22.58-22.58,22.61,22.61,0,0,1,22.58-22.58,22.61,22.61,0,0,1,22.58,22.58A22.61,22.61,0,0,1,511.15,9.86Zm0,0"/>
    </g>
  </g>
</svg>
