<svg xmlns="http://www.w3.org/2000/svg" width="1024" height="1024" viewBox="0 0 1024 1024">
  <defs>
    <style>
      .a {
        fill: none;
        stroke: #c1272d;
        stroke-linecap: round;
        stroke-miterlimit: 10;
        stroke-width: 63.8px;
      }
    </style>
  </defs>
  <title>clock</title>
  <path class="a" d="M809.06,808.08l-51-51M514,36C250.56,36,37,249.56,37,513S250.56,990,514,990,991,776.44,991,513,777.44,36,514,36Zm0,418.79A58.21,58.21,0,1,0,572.21,513,58.21,58.21,0,0,0,514,454.79ZM514,513,672.69,350.57M273.56,759.7l-51,51m586-589.1-51,51M514,855.13v76.56m0-836.38v76.56M217.31,217.92l51,51M94.5,516.19h76.56m685.86,0h76.56"/>
</svg>
